<svg width="41" height="41" viewBox="0 0 41 41" fill="none" xmlns="http://www.w3.org/2000/svg">
<g clip-path="url(#clip0_103_874)">
<path d="M7.84327 7.53305C8.0881 7.53305 8.31067 7.44652 8.47763 7.28424C8.60008 7.16522 11.5268 4.37459 15.9226 2.9901C21.7873 1.12968 27.3405 2.56822 32.404 7.24097C32.7601 7.57631 33.3277 7.55468 33.6726 7.20848C33.8396 7.03542 33.9286 6.81909 33.9174 6.59191C33.9063 6.36473 33.8173 6.14841 33.6392 5.9862C30.5677 3.16309 27.2848 1.39998 23.8572 0.750998C21.1085 0.231812 18.2707 0.426507 15.4218 1.3243C10.5809 2.84945 7.35362 5.93215 7.22008 6.06195C7.05312 6.22423 6.953 6.44056 6.953 6.67852C6.953 6.91648 7.04203 7.13281 7.20899 7.29509C7.37581 7.43567 7.59845 7.53305 7.84327 7.53305Z" fill="#F05E06"/>
<path d="M35.7313 18.8687C34.8188 13.1576 32.504 9.05818 28.8428 6.70021C23.5233 3.27138 17.2357 4.75326 16.9797 4.81816C16.5012 4.92632 16.2008 5.40225 16.3231 5.86739C16.4344 6.33253 16.9241 6.62453 17.4026 6.50559C17.6364 6.45147 23.1338 5.15351 27.8078 8.16053C31.0684 10.2589 33.1495 13.9473 33.973 19.1285C34.0064 19.3557 34.1399 19.5611 34.3291 19.7018C34.4849 19.81 34.6629 19.8749 34.8522 19.8749C34.8967 19.8749 34.9412 19.8749 34.9857 19.864C35.4643 19.7882 35.8092 19.3447 35.7313 18.8687Z" fill="#F05E06"/>
<path d="M7.05312 18.8794C7.85437 9.77197 14.0752 7.67352 14.3423 7.58699C14.5649 7.51124 14.7541 7.35981 14.8542 7.15433C14.9655 6.94879 14.9767 6.71083 14.8987 6.4945C14.743 6.04021 14.231 5.7914 13.7637 5.94283C13.4521 6.04021 6.16285 8.49549 5.26149 18.7388C5.23923 18.966 5.31717 19.1931 5.47297 19.377C5.62877 19.55 5.84024 19.6582 6.08507 19.6798H6.163C6.37448 19.6798 6.57479 19.6041 6.74168 19.4743C6.91958 19.3229 7.03087 19.1065 7.05312 18.8794Z" fill="#F05E06"/>
<path d="M10.7812 18.8145C11.0705 16.5972 11.9942 14.4771 13.3964 12.8331C14.398 11.6649 15.6332 10.7563 16.9687 10.1939C18.3931 9.59892 19.9177 9.39344 21.4979 9.57729C23.7014 9.84773 25.9049 10.8645 28.0749 12.6167C28.4532 12.9196 29.0208 12.8763 29.3324 12.5086C29.4882 12.3355 29.555 12.1083 29.5327 11.8704C29.5105 11.6324 29.3992 11.4268 29.21 11.2863C26.7728 9.31769 24.2578 8.1603 21.7093 7.85744C19.8175 7.63026 17.9813 7.87908 16.2564 8.60381C14.665 9.27443 13.196 10.3561 12.0164 11.7298C10.3917 13.6227 9.32333 16.0672 9.00057 18.6091C8.76684 20.4154 8.4775 21.9514 8.13256 23.1628C7.68742 24.7312 7.16435 25.7696 6.59684 26.2347C6.41879 26.3861 6.29634 26.5916 6.27408 26.8296C6.25182 27.0568 6.32976 27.2839 6.47439 27.4678C6.65245 27.6733 6.90844 27.7815 7.16435 27.7815C7.36466 27.7815 7.57614 27.7166 7.74303 27.576C8.59995 26.8837 9.31217 25.5533 9.85742 23.6279C10.2248 22.3191 10.5364 20.6966 10.7812 18.8145Z" fill="#F05E06"/>
<path d="M28.7537 21.9947V21.9839C28.6647 21.1943 28.5756 20.3723 28.4977 19.6692C28.4643 19.388 28.4421 19.2149 28.4198 19.0419C28.1749 16.8678 27.9301 14.8018 25.9826 13.1144C24.892 12.1626 23.4564 11.5136 21.943 11.2648C20.6966 11.0701 19.4168 11.1458 18.2594 11.5136C16.9685 11.9139 15.8445 12.6277 14.9097 13.6336C13.6744 14.9749 12.8509 16.7704 12.4726 18.9878C12.4614 19.031 12.4614 19.0743 12.4503 19.1068V19.1393C12.2611 21.216 11.6713 23.9851 10.9146 26.3539C10.2135 28.5388 9.49017 30.0532 8.93376 30.5075C8.7557 30.6589 8.63325 30.8644 8.61099 31.1024C8.58874 31.3296 8.66667 31.5567 8.8113 31.7406C8.9671 31.9137 9.17858 32.0327 9.4234 32.0543C9.65714 32.0759 9.8908 32.0003 10.08 31.8596C11.204 30.951 12.1611 28.355 12.6285 26.884C13.4297 24.3854 14.0418 21.4758 14.2421 19.2908C14.5649 17.4088 15.2437 15.9053 16.2452 14.8128C16.9574 14.034 17.8144 13.4932 18.8047 13.1903C19.7062 12.9091 20.6855 12.8442 21.6648 13.0064C22.8444 13.2011 23.9684 13.6987 24.803 14.4342C26.2386 15.6781 26.4389 17.4195 26.6503 19.2584C26.6837 19.5072 26.706 19.7451 26.7282 19.8966C26.8284 20.7402 26.9063 21.4758 26.9842 22.1896C27.3848 25.9429 27.8077 29.8261 29.5104 33.4712C29.6551 33.7957 29.989 33.9796 30.3228 33.9796C30.4453 33.9796 30.5676 33.958 30.6901 33.9039C31.1352 33.7092 31.3355 33.19 31.1352 32.7573C29.5438 29.3391 29.1432 25.6075 28.7537 21.9947Z" fill="#F05E06"/>
<path d="M24.9144 20.3615C25.0813 18.7607 24.7697 17.3654 24.0019 16.3161C23.5345 15.6672 22.9001 15.1696 22.1656 14.8775C21.4645 14.5963 20.6967 14.5205 19.9622 14.6503C18.9829 14.8234 18.1149 15.3642 17.514 16.1646C17.1467 16.6514 16.824 17.2571 16.5569 17.9602C16.3009 18.6416 16.0784 19.4312 15.9003 20.329C15.7668 21.0104 15.6777 21.6162 15.5998 22.1894C15.4551 23.2386 15.3327 24.158 14.8876 25.4019C14.4425 26.6458 13.8193 28.0087 13.018 29.4797C11.9719 31.405 10.9815 32.8112 10.5809 33.2979C10.2693 33.6657 10.3249 34.2173 10.7033 34.5202C10.8925 34.6716 11.1262 34.7365 11.3599 34.7149C11.5937 34.6933 11.8162 34.5851 11.9609 34.4012C12.5173 33.7414 13.6079 32.1189 14.5983 30.3017C15.433 28.7766 16.1007 27.3164 16.5792 25.9751C17.08 24.5581 17.2246 23.5198 17.3804 22.4273C17.4584 21.8865 17.5362 21.324 17.6698 20.6642C17.8256 19.8638 18.0259 19.1607 18.2484 18.5766C18.4599 18.0141 18.7047 17.549 18.9718 17.2029C19.3057 16.7594 19.7731 16.4673 20.2961 16.3808C20.6968 16.3051 21.1085 16.3483 21.498 16.5106C21.9098 16.6729 22.277 16.9649 22.5441 17.3435C23.056 18.0466 23.2563 19.0417 23.1339 20.2207C22.9113 22.3515 22.0322 25.4559 20.6522 28.9496C19.1944 32.6596 17.3582 36.3264 16.2787 37.6569C15.9782 38.0355 16.045 38.5763 16.4345 38.8792C16.6015 38.9982 16.7907 39.0631 16.9799 39.0631C17.247 39.0631 17.514 38.9441 17.681 38.7277C18.8718 37.2459 20.7747 33.4818 22.3105 29.5662C23.757 25.8995 24.6696 22.6438 24.9144 20.3615Z" fill="#F05E06"/>
<path d="M32.5708 22.4814C32.3927 19.8313 32.2035 17.0839 31.2576 15.018C31.0573 14.5853 30.5231 14.3798 30.078 14.5745C29.6329 14.7692 29.4214 15.2884 29.6217 15.721C30.4341 17.4949 30.6122 20.08 30.7791 22.5895C30.9683 25.3477 31.1463 27.9545 32.1367 29.7176C32.248 29.9232 32.4372 30.0746 32.6709 30.1395C32.7599 30.1611 32.8378 30.172 32.9269 30.172C33.0716 30.172 33.2162 30.1395 33.3498 30.0638C33.5612 29.9557 33.717 29.7717 33.7838 29.5446C33.8506 29.3175 33.8283 29.0903 33.7059 28.8848C32.9046 27.457 32.7488 25.0449 32.5708 22.4814Z" fill="#F05E06"/>
<path d="M20.6719 18.8719C20.6831 18.6447 20.6051 18.4176 20.4382 18.2445C20.2824 18.0715 20.0598 17.9741 19.815 17.9633C19.3253 17.9417 18.9024 18.3094 18.8802 18.7854C18.7132 22.0195 18.001 25.3077 16.8326 28.3038C15.6863 31.2567 14.1283 33.8094 12.2253 35.8862C11.9026 36.2432 11.9248 36.7948 12.3033 37.1193C12.4702 37.2707 12.6816 37.3356 12.8931 37.3356C13.1379 37.3356 13.3828 37.2382 13.5608 37.0435C15.6084 34.8045 17.2778 32.0679 18.513 28.9203C19.7482 25.7512 20.4938 22.2791 20.6719 18.8719Z" fill="#F05E06"/>
<path d="M26.5169 29.3066L26.4278 28.874C26.3722 28.5603 26.1496 28.3007 25.838 28.1925C25.6154 28.1168 25.3706 28.1276 25.148 28.225C24.9366 28.3224 24.7697 28.5062 24.6917 28.7226L24.6584 28.8199C24.0352 30.5289 23.4231 32.2054 22.6553 33.882C21.7984 35.7749 20.8636 37.4406 19.8064 38.9658C19.6729 39.1605 19.6284 39.3877 19.6729 39.6148C19.7174 39.8419 19.8509 40.0366 20.0512 40.1664C20.207 40.2638 20.374 40.3179 20.5521 40.3179C20.8414 40.3179 21.1196 40.1881 21.2977 39.9393C22.4105 38.3384 23.3898 36.5861 24.3024 34.5851C24.6474 33.828 24.9812 33.0276 25.3373 32.1081C25.7269 33.5792 26.261 35.1692 27.2848 36.9323C27.3961 37.1378 27.5964 37.2784 27.819 37.3433C28.0527 37.4082 28.2864 37.3758 28.4979 37.2676C28.7094 37.1486 28.854 36.9647 28.9208 36.7484C28.9875 36.5212 28.9542 36.2941 28.8428 36.0886C27.4851 33.7198 27.0177 31.5782 26.5169 29.3066Z" fill="#F05E06"/>
</g>
<defs>
<clipPath id="clip0_103_874">
<rect width="41" height="39.8505" fill="white" transform="translate(0 0.467285)"/>
</clipPath>
</defs>
</svg>
