<svg width="41" height="42" viewBox="0 0 41 42" fill="none" xmlns="http://www.w3.org/2000/svg">
<path fill-rule="evenodd" clip-rule="evenodd" d="M27.0988 16.6482C27.5504 17.0923 27.5504 17.8123 27.0988 18.2564L20.1613 25.0792C19.9445 25.2925 19.6504 25.4123 19.3437 25.4123C19.0371 25.4123 18.743 25.2925 18.5262 25.0792L15.0574 21.6678C14.6059 21.2237 14.6059 20.5037 15.0574 20.0597C15.509 19.6156 16.241 19.6156 16.6926 20.0597L19.3437 22.667L25.4637 16.6482C25.9152 16.2042 26.6473 16.2042 27.0988 16.6482Z" fill="#F05E06"/>
<path d="M8.9375 2.66943H32.0625C34.6168 2.66943 36.6875 4.70589 36.6875 7.21799V34.5093C36.6875 37.0214 34.6168 39.0579 32.0625 39.0579H8.9375C6.38318 39.0579 4.3125 37.0214 4.3125 34.5093V32.235H6.625V34.5093C6.625 35.7654 7.66034 36.7836 8.9375 36.7836H32.0625C33.3397 36.7836 34.375 35.7654 34.375 34.5093V7.21799C34.375 5.96194 33.3397 4.94371 32.0625 4.94371H8.9375C7.66034 4.94371 6.625 5.96194 6.625 7.21799V9.49226H4.3125V7.21799C4.3125 4.70589 6.38318 2.66943 8.9375 2.66943Z" fill="#F05E06"/>
<path d="M4.3125 14.0408V12.9037C4.3125 12.2757 4.83017 11.7665 5.46875 11.7665C6.10733 11.7665 6.625 12.2757 6.625 12.9037V14.0408H7.78125C8.41983 14.0408 8.9375 14.5499 8.9375 15.178C8.9375 15.806 8.41983 16.3151 7.78125 16.3151H3.15625C2.51767 16.3151 2 15.806 2 15.178C2 14.5499 2.51767 14.0408 3.15625 14.0408H4.3125Z" fill="#F05E06"/>
<path d="M4.3125 20.8636V19.7265C4.3125 19.0985 4.83017 18.5894 5.46875 18.5894C6.10733 18.5894 6.625 19.0985 6.625 19.7265V20.8636H7.78125C8.41983 20.8636 8.9375 21.3728 8.9375 22.0008C8.9375 22.6288 8.41983 23.1379 7.78125 23.1379H3.15625C2.51767 23.1379 2 22.6288 2 22.0008C2 21.3728 2.51767 20.8636 3.15625 20.8636H4.3125Z" fill="#F05E06"/>
<path d="M4.3125 27.6865V26.5493C4.3125 25.9213 4.83017 25.4122 5.46875 25.4122C6.10733 25.4122 6.625 25.9213 6.625 26.5493V27.6865H7.78125C8.41983 27.6865 8.9375 28.1956 8.9375 28.8236C8.9375 29.4516 8.41983 29.9608 7.78125 29.9608H3.15625C2.51767 29.9608 2 29.4516 2 28.8236C2 28.1956 2.51767 27.6865 3.15625 27.6865H4.3125Z" fill="#F05E06"/>
</svg>
