<svg width="72" height="72" viewBox="0 0 72 72" fill="none" xmlns="http://www.w3.org/2000/svg">
<g clip-path="url(#clip0_267_624)">
<path d="M36 72C55.8823 72 72 55.8823 72 36C72 16.1178 55.8823 0 36 0C16.1178 0 0 16.1178 0 36C0 55.8823 16.1178 72 36 72Z" fill="#F2FFEE"/>
<path d="M30.3096 49.6577L18.779 38.1259C18.6138 37.9614 18.4827 37.7659 18.3932 37.5506C18.3037 37.3352 18.2577 37.1044 18.2577 36.8712C18.2577 36.6381 18.3037 36.4072 18.3932 36.1919C18.4827 35.9766 18.6138 35.781 18.779 35.6165L21.2872 33.1072C21.4517 32.9419 21.6472 32.8108 21.8626 32.7213C22.0779 32.6319 22.3087 32.5858 22.5419 32.5858C22.7751 32.5858 23.0059 32.6319 23.2212 32.7213C23.4366 32.8108 23.6321 32.9419 23.7966 33.1072L31.5643 40.8749L48.2069 24.2323C48.3715 24.067 48.567 23.9359 48.7823 23.8465C48.9976 23.757 49.2285 23.7109 49.4616 23.7109C49.6948 23.7109 49.9257 23.757 50.141 23.8465C50.3563 23.9359 50.5518 24.067 50.7163 24.2323L53.2245 26.7416C53.3898 26.9062 53.5209 27.1017 53.6103 27.317C53.6998 27.5323 53.7459 27.7632 53.7459 27.9963C53.7459 28.2295 53.6998 28.4604 53.6103 28.6757C53.5209 28.891 53.3898 29.0865 53.2245 29.251L32.819 49.6577C32.6545 49.8229 32.459 49.9541 32.2437 50.0435C32.0284 50.133 31.7975 50.179 31.5643 50.179C31.3312 50.179 31.1003 50.133 30.885 50.0435C30.6697 49.9541 30.4741 49.8229 30.3096 49.6577Z" fill="#17C614"/>
</g>
<defs>
<clipPath id="clip0_267_624">
<rect width="72" height="72" fill="white"/>
</clipPath>
</defs>
</svg>
