<svg width="198" height="51" viewBox="0 0 198 51" fill="none" xmlns="http://www.w3.org/2000/svg">
<g clip-path="url(#clip0_103_224)">
<path d="M26.6452 23.4218L44.0569 11.5647C44.4198 11.3181 44.5601 10.8431 44.3832 10.4411C43.3861 8.16046 41.7547 6.45833 39.4555 5.36519C39.056 5.1764 38.5773 5.2982 38.3181 5.65446L25.9103 22.6362C26.0353 22.7306 26.1542 22.8311 26.264 22.9468C26.4104 23.096 26.5354 23.2574 26.6452 23.4279V23.4218Z" fill="#F05E06"/>
<path d="M21.629 26.963L8.75463 35.7325C8.44665 35.9426 8.29113 36.3171 8.37346 36.6764C8.84611 38.7531 10.0933 39.9924 12.0449 40.4704C12.4016 40.5587 12.7798 40.4156 12.9963 40.1172L22.1961 27.5263C22.0742 27.4411 21.9583 27.3467 21.8516 27.234C21.7692 27.1487 21.696 27.0574 21.629 26.96V26.963Z" fill="#F05E06"/>
<path d="M25.7578 27.6543L37.7204 45.1689C37.9399 45.4916 38.3425 45.6408 38.7175 45.5373C41.3095 44.8248 43.1177 43.1805 43.9959 40.4279C44.1149 40.0533 43.9776 39.6423 43.6605 39.4108L26.5262 26.9265C26.4287 27.0605 26.3189 27.1884 26.1969 27.3071C26.0597 27.4411 25.9133 27.5538 25.7578 27.6573V27.6543Z" fill="#F05E06"/>
<path d="M22.2297 22.6209L12.8865 8.93992C12.6273 8.56234 12.1272 8.42532 11.7217 8.63542C10.1635 9.43929 8.90104 10.6512 7.95879 12.2924C7.72704 12.6944 7.84292 13.2089 8.21799 13.483L21.6046 23.236C21.693 23.1111 21.7906 22.9954 21.9034 22.8858C22.0071 22.7853 22.1169 22.7001 22.2297 22.6209Z" fill="#F05E06"/>
<path d="M23.5043 28.1232L19.5493 49.0146C19.4762 49.4044 19.6622 49.8033 20.0128 49.9921C22.4523 51.2953 24.8948 51.3349 27.3343 50.1078C27.688 49.9312 27.8832 49.5384 27.8222 49.1486L24.532 28.1323C24.1904 28.1871 23.8428 28.181 23.5013 28.1232H23.5043Z" fill="#F05E06"/>
<path d="M24.6844 22.0698L28.5541 1.61986C28.6425 1.15703 28.3619 0.700285 27.9076 0.566307C25.5718 -0.109673 23.2604 -0.216247 20.9795 0.435374C20.5373 0.563262 20.2598 1.00478 20.333 1.45848L23.5562 22.0454C23.9313 21.9845 24.3124 21.9937 24.6844 22.0698Z" fill="#F05E06"/>
<path d="M21.0374 24.6215L1.74726 20.9798C1.3234 20.9006 0.899542 21.1229 0.731829 21.5187C-0.207369 23.7111 -0.240912 25.9004 0.628151 28.0928C0.786717 28.4917 1.20143 28.7261 1.62529 28.6591L21.0496 25.6264C20.9856 25.2945 20.9856 24.9534 21.0405 24.6215H21.0374Z" fill="#F05E06"/>
<path d="M26.9653 25.6659L43.9288 28.8692C44.307 28.9392 44.6942 28.7717 44.8863 28.4429C45.8957 26.7133 46.042 24.7981 44.9656 22.6209C44.7887 22.2646 44.3984 22.0698 44.0051 22.1307L27.0019 24.7828C27.0416 25.0782 27.0294 25.3766 26.9653 25.6659Z" fill="#F05E06"/>
<path d="M150.122 10.155C148.982 9.0162 146.981 9.0162 145.841 10.155C145.301 10.6787 144.987 11.4369 144.981 12.2408C144.975 13.0629 145.286 13.8485 145.838 14.3997C146.408 14.9691 147.195 15.2553 147.979 15.2553C148.762 15.2553 149.549 14.9691 150.119 14.3997C150.671 13.8485 150.982 13.0629 150.976 12.2408C150.97 11.4369 150.656 10.6757 150.119 10.155H150.122Z" fill="#005AFF"/>
<path d="M150.455 16.9666H150.253C147.634 16.9666 145.506 19.095 145.506 21.7076V35.7935H150.455V16.9666Z" fill="#005AFF"/>
<path d="M163.475 17.3624C162.747 17.0975 162.009 16.9635 161.277 16.9635C159.282 16.9635 157.724 17.7491 156.639 19.302V17.4476H156.437C153.925 17.4476 151.882 19.4878 151.882 21.9968V35.4038H156.831V26.8596C156.831 23.5619 158.282 21.7441 160.923 21.7441C161.521 21.7441 162.207 21.8598 162.963 22.0912L163.198 22.1643L163.622 17.4172L163.478 17.3654L163.475 17.3624Z" fill="#005AFF"/>
<path d="M180.491 19.7375C178.692 17.9075 176.371 16.9818 173.596 16.9818C170.821 16.9818 168.501 17.9075 166.702 19.7375C164.915 21.5218 164.006 23.7629 164.006 26.3968C164.006 29.0307 164.912 31.3023 166.702 33.0866C168.51 34.8923 170.83 35.8088 173.596 35.8088C176.362 35.8088 178.679 34.8923 180.491 33.0866C182.278 31.3023 183.186 29.049 183.186 26.3968C183.186 23.7447 182.281 21.5249 180.494 19.7405L180.491 19.7375ZM178.252 26.3938C178.252 27.7031 177.795 28.8571 176.895 29.8194C175.993 30.7511 174.916 31.2048 173.599 31.2048C172.282 31.2048 171.16 30.7389 170.272 29.8224C169.379 28.8693 168.943 27.7457 168.943 26.3938C168.943 25.0418 169.388 23.9091 170.269 23.0017C171.157 22.0821 172.279 21.6162 173.599 21.6162C174.92 21.6162 175.996 22.0699 176.895 23.0017C177.798 23.9335 178.252 25.0753 178.252 26.3938Z" fill="#005AFF"/>
<path d="M194.792 25.6385C194.319 25.3858 192.929 24.8194 190.651 23.9668C189.639 23.6197 189.136 23.1142 189.136 22.3895C189.136 21.6009 189.925 20.9371 191.096 20.9371C192.517 20.9371 193.847 21.5065 195.048 22.6423L197.259 19.7709C195.679 18.1296 193.658 17.3105 191.224 17.3105C189.297 17.3105 187.718 17.7825 186.547 18.763C185.379 19.7404 184.778 20.9706 184.778 22.487C184.778 24.5058 185.757 25.9887 187.748 26.9357C188.126 27.1244 188.855 27.4411 189.959 27.8522C191.066 28.2633 191.728 28.516 192.014 28.6408C192.834 29.0184 193.246 29.5239 193.246 30.1237C193.246 31.1012 192.234 31.7954 190.877 31.7954C189.139 31.7954 187.336 30.8789 186.105 29.396L183.735 32.2034C185.473 34.411 187.843 35.5163 190.846 35.5163C192.902 35.5163 194.576 35.0109 195.808 33.9695C197.073 32.9281 197.704 31.6036 197.704 29.9928C197.704 28.0988 196.725 26.6464 194.798 25.6385H194.792Z" fill="#005AFF"/>
<path d="M190.843 35.8148C187.757 35.8148 185.287 34.6608 183.497 32.3862L183.348 32.1944L186.105 28.9271L186.333 29.2012C187.507 30.614 189.248 31.491 190.874 31.491C192.075 31.491 192.944 30.9124 192.944 30.1177C192.944 29.6366 192.587 29.2286 191.886 28.9058C191.633 28.7931 191.041 28.5648 189.852 28.1263C188.904 27.7761 188.087 27.4351 187.611 27.1976C185.531 26.208 184.473 24.6215 184.473 22.4809C184.473 20.9006 185.104 19.57 186.351 18.5286C187.559 17.5177 189.197 17.0061 191.221 17.0061C193.737 17.0061 195.841 17.8648 197.472 19.5578L197.652 19.7435L195.082 23.0808L194.841 22.8524C193.703 21.7745 192.444 21.2295 191.096 21.2295C190.151 21.2295 189.437 21.7258 189.437 22.3835C189.437 22.7459 189.575 23.2726 190.752 23.6776C192.941 24.4967 194.423 25.0966 194.935 25.3676C196.969 26.4333 198.003 27.9893 198.003 29.9868C198.003 31.6828 197.329 33.0987 196 34.1949C194.731 35.2667 192.999 35.8087 190.846 35.8087L190.843 35.8148ZM184.119 32.2065C185.778 34.204 188.038 35.218 190.843 35.218C192.85 35.218 194.454 34.7217 195.612 33.7412C196.817 32.7485 197.402 31.5245 197.402 29.9929C197.402 28.2085 196.503 26.8718 194.655 25.9035C194.371 25.7512 193.463 25.3371 190.55 24.247C189.401 23.8542 188.84 23.2452 188.84 22.3896C188.84 21.3908 189.809 20.6387 191.099 20.6387C192.508 20.6387 193.822 21.1655 195.012 22.2008L196.866 19.7953C195.378 18.3428 193.481 17.609 191.227 17.609C189.346 17.609 187.84 18.0749 186.742 18.9914C185.623 19.9262 185.08 21.0711 185.08 22.487C185.08 24.4023 185.995 25.7695 187.879 26.6678C188.102 26.7774 188.748 27.0849 190.066 27.5721C191.282 28.0228 191.862 28.245 192.136 28.3668C193.304 28.9028 193.548 29.6183 193.548 30.1238C193.548 31.2656 192.426 32.0939 190.877 32.0939C189.157 32.0939 187.397 31.2626 186.108 29.8558L184.122 32.2096L184.119 32.2065Z" fill="#005AFF"/>
<path d="M80.8625 18.9914C79.5513 17.612 77.8192 16.9148 75.7182 16.9148C73.1995 16.9148 70.946 18.017 69.6165 19.8836C68.659 18.017 66.7898 16.9148 64.5576 16.9148C62.5542 16.8904 60.6453 17.8678 59.5354 19.4695V17.4111H59.3341C56.8306 17.4111 54.7936 19.4451 54.7936 21.945V35.8209H59.6268V25.7725C59.6268 23.2818 61.0509 21.6101 63.1702 21.6101C65.2895 21.6101 66.4299 23.1173 66.4299 25.6416V35.8209H71.2631V25.739C71.2631 23.23 72.6658 21.6101 74.837 21.6101C76.8587 21.6101 78.0632 23.1052 78.0632 25.6081V35.8209H82.8964V24.7494C82.8964 22.283 82.2286 20.3982 80.8594 18.9914H80.8625Z" fill="#005AFF"/>
<path d="M124.169 10.3438V31.5153C124.169 33.6346 122.364 35.355 120.138 35.355H119.4V33.1505C117.878 34.8952 115.942 35.7844 113.558 35.7844C110.895 35.7844 108.648 34.8952 106.886 33.12C105.123 31.3113 104.224 29.0733 104.224 26.3755C104.224 23.6776 105.123 21.4731 106.886 19.6613C108.685 17.8526 110.895 16.9635 113.558 16.9635C115.838 16.9635 117.741 17.8191 119.296 19.4969V14.9873C119.296 12.4235 121.48 10.3468 124.172 10.3468L124.169 10.3438ZM118.086 22.7154C117.119 21.6954 115.872 21.2021 114.317 21.2021C112.762 21.2021 111.518 21.6954 110.514 22.7154C109.548 23.702 109.063 24.92 109.063 26.3694C109.063 27.8188 109.548 29.0672 110.514 30.0873C111.518 31.0738 112.762 31.5671 114.317 31.5671C115.872 31.5671 117.116 31.0738 118.086 30.0873C119.052 29.0672 119.537 27.8492 119.537 26.3694C119.537 24.8895 119.052 23.705 118.086 22.7154Z" fill="#005AFF"/>
<path d="M102.595 28.0319H89.0896C89.7513 30.5714 91.4986 31.8564 94.3406 31.8564C96.2891 31.8564 98.6005 31.0982 100.153 30.0416L102.001 33.3058C99.7226 34.9531 97.1124 35.7783 94.1424 35.7783C90.971 35.7783 88.5621 34.8556 86.8788 33.0409C85.1956 31.2261 84.3692 28.985 84.3692 26.3815C84.3692 23.6441 85.2291 21.403 86.9764 19.6217C88.7267 17.8404 90.971 16.9513 93.7459 16.9513C96.3531 16.9513 98.5334 17.7765 100.217 19.3903C101.9 21.0072 102.76 23.1813 102.76 25.9857C102.76 26.6129 102.693 27.3042 102.595 28.0289V28.0319ZM90.8155 24.5698H96.6062C97.4966 24.5698 98.0577 23.5984 97.5973 22.8372C96.8136 21.5492 95.4597 20.8093 93.7459 20.8093C92.0322 20.8093 90.6996 21.534 89.8489 22.8007C89.3427 23.5558 89.9068 24.5698 90.8155 24.5698Z" fill="#005AFF"/>
<path d="M143.862 28.0166H130.356C131.018 30.5561 132.765 31.8411 135.607 31.8411C137.556 31.8411 139.867 31.0829 141.419 30.0263L143.267 33.2905C140.989 34.9378 138.379 35.763 135.409 35.763C132.238 35.763 129.829 34.8404 128.146 33.0256C126.462 31.2108 125.636 28.9697 125.636 26.3663C125.636 23.6289 126.496 21.3878 128.243 19.6065C129.993 17.8252 132.238 16.936 135.013 16.936C137.62 16.936 139.8 17.7612 141.483 19.375C143.167 20.9919 144.027 23.166 144.027 25.9704C144.027 26.5977 143.959 27.2889 143.862 28.0136V28.0166ZM132.082 24.5545H137.873C138.763 24.5545 139.324 23.5832 138.864 22.8219C138.08 21.5339 136.726 20.794 135.013 20.794C133.299 20.794 131.966 21.5187 131.116 22.7854C130.609 23.5405 131.174 24.5545 132.082 24.5545Z" fill="#005AFF"/>
<path d="M156.834 34.5786H151.885V35.7814H156.834V34.5786Z" fill="#005AFF"/>
<path d="M119.4 31.016H124.169C124.169 33.6438 122.032 35.7783 119.4 35.7783V31.016Z" fill="#005AFF"/>
<path d="M124.169 9.08923V15.6816H119.293V13.9551C119.293 11.2694 121.477 9.08618 124.169 9.08618V9.08923Z" fill="#005AFF"/>
</g>
<defs>
<clipPath id="clip0_103_224">
<rect width="198" height="51" fill="white"/>
</clipPath>
</defs>
</svg>
